# xmcd
#
# Track frame offsets:
#	150
#	18717
#	34486
#	52220
#	70603
#	86856
#	105648
#	120269
#	132988
#	148136
#	168354
#	182728
#	200873
#	218625
#
# Disc length: 3155 seconds
#
# Revision: 1
# Processed by: cddbd v1.5.2PL0 Copyright (c) Steve Scherf et al.
# Submitted via: audiograbber 1.83.01
#
DISCID=d70c510e
DTITLE=Richard, Cliff - Two's Company
DYEAR=2006
DGENRE=Pop
TTITLE0=Move it
TTITLE1=Anyone who had a heart
TTITLE2=Miss you nights
TTITLE3=Yesterday once more
TTITLE4=She means nothing to me
TTITLE5=All I ask of you
TTITLE6=Let there be love
TTITLE7=Throw down a line
TTITLE8=Fields of gold
TTITLE9=Up where we belong
TTITLE10=Slow rivers
TTITLE11=Suddenly
TTITLE12=Danny boy
TTITLE13=Reunited
EXTD=
EXTT0=
EXTT1=
EXTT2=
EXTT3=
EXTT4=
EXTT5=
EXTT6=
EXTT7=
EXTT8=
EXTT9=
EXTT10=
EXTT11=
EXTT12=
EXTT13=
PLAYORDER=
